<svg width="200" height="50" viewBox="0 0 608 154" fill="none" xmlns="http://www.w3.org/2000/svg">
<g clip-path="url(#clip0)">
<path d="M9.97761 38.494L76.7922 -0.000409721L78.4761 0.969354L76.9925 -0.0078125H62.186L0.0744854 35.3108V116.142C0.0744854 116.327 -0.0887122 118.644 0.0744854 118.74L62.2157 153.977H76.7922L9.97761 115.483V38.494Z" fill="#2D1554"/>
<path d="M76.792 154H76.9626L77.7638 153.445L76.792 154Z" fill="#2D1554"/>
<path d="M90.0557 7.6543C96.534 14.5543 101.25 22.9116 103.803 32.0174C106.356 41.1232 106.671 50.7091 104.721 59.9623C109.914 62.7754 114.661 65.4774 115.181 66.2399C118.252 67.2615 109.869 77.2478 105.967 78.4989C105.745 78.5655 103.742 78.2324 98.2601 77.2626C99.395 79.0541 109.439 104.15 110.129 106.282C122.378 105.541 134.087 100.993 143.614 93.2748V38.4943L90.0557 7.6543Z" fill="#0B567D"/>
<path d="M36.4526 110.131C33.8044 110.131 32.1279 109.087 32.9439 106.348C33.3222 105.082 44.1674 79.3946 44.1674 79.3946H36.3488C32.254 79.3946 24.8656 66.7211 27.9367 65.7069C29.0642 63.9895 51.1849 52.1228 52.9875 51.2789C53.7812 50.9014 54.0631 49.6799 54.2263 48.7694C54.2263 48.6953 54.2263 48.6213 54.2708 48.5473C46.4158 47.5759 38.4452 48.1943 30.835 50.3654C23.2248 52.5365 16.1311 56.2159 9.97754 61.1838V115.483L61.4886 145.161C53.135 135.32 48.2648 123.005 47.6317 110.124C43.9449 110.146 40.2804 110.146 36.4526 110.131Z" fill="#D69A00"/>
<path d="M54.2709 48.5474C54.894 45.2088 56.4963 40.9448 59.1297 38.1317C60.3907 36.9091 61.8848 35.9516 63.5234 35.3158C65.1621 34.68 66.9119 34.3789 68.6693 34.4303C71.7201 34.5357 74.757 34.8923 77.749 35.4963C80.1306 35.8039 82.3295 36.9325 83.9654 38.6869C86.6433 41.5666 88.5275 46.4228 88.8687 50.3907C88.8727 50.8011 88.9906 51.2024 89.2093 51.55C89.428 51.8976 89.7389 52.1779 90.1076 52.3599C91.0867 52.8262 98.2674 56.498 104.714 59.9699C106.664 50.7161 106.348 41.1296 103.794 32.0235C101.239 22.9174 96.5215 14.5605 90.0408 7.66188L76.7921 0L9.97754 38.4944V61.1692C16.1318 56.2031 23.226 52.526 30.8363 50.3574C38.4466 48.1887 46.4168 47.5732 54.2709 48.5474Z" fill="#BA453F"/>
<path d="M105.967 78.4696C109.869 77.2186 118.251 67.2322 115.18 66.2106C114.031 64.5006 91.8802 53.1669 90.1073 52.3156C89.7375 52.1331 89.4259 51.8516 89.2071 51.5026C88.9884 51.1536 88.8711 50.7507 88.8685 50.3391C88.5273 46.3712 86.6431 41.515 83.9652 38.6353C82.3293 36.8809 80.1304 35.7522 77.7488 35.4447C74.7568 34.8406 71.7199 34.4841 68.6691 34.3787C66.9117 34.3272 65.1619 34.6283 63.5232 35.2641C61.8846 35.8999 60.3905 36.8575 59.1295 38.0801C56.4515 41.0116 54.8196 45.4014 54.2261 48.7697C54.0629 49.6802 53.781 50.9017 52.9873 51.2792C51.1847 52.1231 29.064 63.9898 27.9142 65.7072C24.8431 66.7214 32.2315 79.395 36.3263 79.395H44.1672C44.1672 79.395 33.322 105.12 32.9437 106.349C32.1277 109.088 33.8042 110.124 36.4524 110.131C41.5783 110.131 46.4223 110.131 51.3924 110.131H67.1187C67.9281 110.166 68.7286 109.952 69.4128 109.52C70.0971 109.087 70.6322 108.456 70.9464 107.711C71.1726 107.206 71.3708 106.69 71.5399 106.163C71.709 106.69 71.9071 107.206 72.1333 107.711C72.4475 108.456 72.9827 109.087 73.6669 109.52C74.3512 109.952 75.1517 110.166 75.9611 110.131H91.6651C96.6501 110.131 101.501 110.131 106.635 110.131C109.283 110.131 110.96 109.088 110.144 106.349C109.669 104.749 99.4022 79.0693 98.2746 77.2556C103.742 78.2253 105.745 78.5585 105.967 78.4696Z" fill="white"/>
<path d="M110.129 106.282V106.348C110.945 109.087 109.269 110.124 106.62 110.131C101.487 110.131 96.6356 110.131 91.6507 110.131H75.9689C75.1595 110.166 74.359 109.952 73.6748 109.519C72.9905 109.087 72.4553 108.455 72.1411 107.71C71.9149 107.206 71.7168 106.689 71.5477 106.163C71.3786 106.689 71.1805 107.206 70.9543 107.71C70.6401 108.455 70.1049 109.087 69.4207 109.519C68.7364 109.952 67.9359 110.166 67.1265 110.131H47.6318C48.2645 123.009 53.132 135.321 61.4814 145.161L76.7923 153.978L143.614 115.483V93.2749C134.087 100.993 122.378 105.541 110.129 106.282Z" fill="#7F4677"/>
<path d="M46.6152 110.131C43.9669 110.131 42.2904 109.088 43.099 106.349C43.5738 104.75 53.8404 79.0693 54.9679 77.2556C49.5082 78.2253 47.4757 78.5585 47.2828 78.4696C43.3883 77.2186 35.0059 67.2322 38.0696 66.2106C39.2268 64.5006 61.3697 53.1669 63.1501 52.3156C63.5184 52.1321 63.8286 51.8502 64.046 51.5012C64.2634 51.1523 64.3795 50.75 64.3815 50.3391C64.7227 46.3712 66.6069 41.515 69.2848 38.6353C70.2227 37.6226 71.3577 36.8115 72.6204 36.2515C73.8831 35.6914 75.247 35.3942 76.6287 35.3781C77.0031 35.3781 77.3771 35.4004 77.7488 35.4447C74.7568 34.8406 71.7199 34.4841 68.6691 34.3787C66.9117 34.3272 65.1619 34.6283 63.5232 35.2641C61.8846 35.8999 60.3905 36.8575 59.1295 38.0801C56.4515 41.0116 54.8196 45.4014 54.2261 48.7697C54.0629 49.6802 53.781 50.9017 52.9873 51.2792C51.1847 52.1231 29.064 63.9898 27.9142 65.7072C24.8431 66.7214 32.2315 79.395 36.3263 79.395H44.1672C44.1672 79.395 33.322 105.12 32.9437 106.349C32.1277 109.088 33.8042 110.124 36.4524 110.131C41.5783 110.131 46.4223 110.131 51.3998 110.131H46.6152Z" fill="#2D1554"/>
<path d="M82.3404 107.725C81.339 105.689 78.9948 96.0657 77.2813 93.2971C77.17 93.112 76.8955 93.0898 76.673 93.0454C76.4504 93.001 76.1686 93.112 76.0573 93.2971C74.6256 95.6142 72.7488 102.721 71.6064 106.178C71.7756 106.704 71.9737 107.221 72.1999 107.725C72.5141 108.47 73.0493 109.102 73.7335 109.534C74.4177 109.967 75.2183 110.18 76.0276 110.146H86.1681C85.3586 110.181 84.5576 109.968 83.8731 109.536C83.1887 109.103 82.6537 108.471 82.3404 107.725Z" fill="#2D1554"/>
<path d="M105.968 78.4696C109.87 77.2185 118.252 67.2322 115.181 66.2106C114.031 64.5006 91.8807 53.1669 90.1078 52.3156C89.738 52.1331 89.4263 51.8516 89.2076 51.5026C88.9888 51.1535 88.8716 50.7507 88.8689 50.339C88.5277 46.3712 86.6435 41.5149 83.9656 38.6352C83.0385 37.6103 81.9061 36.7909 80.6417 36.23C79.3773 35.6692 78.0091 35.3794 76.6254 35.3794C75.2418 35.3794 73.8735 35.6692 72.6091 36.23C71.3447 36.7909 70.2124 37.6103 69.2852 38.6352C66.6073 41.5445 64.7231 46.4008 64.3819 50.339C64.3786 50.7487 64.2618 51.1494 64.0445 51.4969C63.8272 51.8445 63.5178 52.1252 63.1505 52.3082C61.3701 53.1595 39.2272 64.4932 38.07 66.2032C35.0063 67.2248 43.3887 77.2111 47.2832 78.4622C47.5058 78.5288 49.5086 78.1957 54.9906 77.2259C53.8408 79.0396 43.5742 104.72 43.1217 106.319C42.3131 109.058 43.9896 110.094 46.6379 110.102C53.6405 110.102 60.1313 110.102 67.1414 110.102C67.9507 110.136 68.7513 109.923 69.4355 109.49C70.1198 109.057 70.6549 108.426 70.9691 107.681C71.9706 105.645 74.3147 96.0216 76.0283 93.2529C76.1395 93.0679 76.414 93.0457 76.644 93.0013C76.8739 92.9568 77.141 93.0679 77.2522 93.2529C78.9658 96.0216 81.3099 105.645 82.3114 107.681C82.6269 108.427 83.1634 109.058 83.8489 109.491C84.5344 109.924 85.3361 110.137 86.1465 110.102C93.1492 110.102 99.64 110.102 106.65 110.102C109.298 110.102 110.975 109.058 110.159 106.319C109.684 104.72 99.4174 79.0396 98.2899 77.2259C103.742 78.2253 105.745 78.5584 105.968 78.4696Z" fill="white"/>
<path d="M202.024 102.728C201.145 102.785 200.264 102.664 199.434 102.371C198.604 102.079 197.842 101.621 197.194 101.026C196.052 99.8932 195.488 98.2646 195.488 96.1326V58.6745C195.488 56.5499 196.052 54.9139 197.194 53.7813C198.337 52.6486 199.961 52.0786 202.098 52.0786H219.575C225.262 52.0786 229.658 53.532 232.764 56.4388C235.87 59.3457 237.42 63.3555 237.415 68.4684C237.415 73.5763 235.865 77.5837 232.764 80.4905C229.663 83.3973 225.267 84.8507 219.575 84.8507H208.566V96.1326C208.566 98.2646 208.01 99.8956 206.897 101.026C205.777 102.158 204.16 102.728 202.024 102.728ZM208.566 74.8496H217.305C222.423 74.8496 224.983 72.7225 224.983 68.4684C224.983 64.2142 222.423 62.0847 217.305 62.0798H208.566V74.8496Z" fill="#2D1554"/>
<path d="M253.038 102.092C250.902 102.092 249.267 101.512 248.135 100.352C247.54 99.6974 247.083 98.9303 246.79 98.0963C246.496 97.2622 246.374 96.378 246.429 95.4959V58.6078C246.429 56.4758 246.993 54.8472 248.135 53.7146C249.502 52.6188 251.203 52.0215 252.957 52.0215C254.71 52.0215 256.411 52.6188 257.778 53.7146C258.916 54.8497 259.485 56.4808 259.485 58.6078V91.2393H276.828C277.581 91.1906 278.336 91.2904 279.05 91.533C279.764 91.7757 280.423 92.1563 280.99 92.6532C281.496 93.1792 281.89 93.8034 282.145 94.4872C282.4 95.171 282.512 95.8998 282.473 96.6285C282.517 97.3678 282.408 98.1081 282.153 98.8035C281.897 99.4988 281.502 100.134 280.99 100.67C280.424 101.17 279.766 101.553 279.051 101.797C278.337 102.041 277.581 102.141 276.828 102.092H253.038Z" fill="#2D1554"/>
<path d="M295.239 102.728C293.013 102.728 291.379 101.973 290.336 100.463C289.297 98.9457 289.297 97.058 290.336 94.7853L308.035 56.7646C308.697 55.1597 309.778 53.7613 311.165 52.7153C312.444 51.8504 313.961 51.4053 315.505 51.442C317.008 51.4227 318.479 51.8674 319.719 52.7153C321.109 53.7586 322.191 55.1578 322.849 56.7646L340.571 94.7557C341.661 97.0728 341.713 98.9753 340.712 100.463C339.71 101.951 338.152 102.684 336.023 102.684C334.462 102.789 332.914 102.337 331.654 101.411C330.434 100.27 329.497 98.8604 328.917 97.2948L326.64 91.9056H304.244L301.974 97.2948C301.363 98.8193 300.469 100.216 299.341 101.411C298.446 102.289 297.079 102.728 295.239 102.728ZM315.357 65.7146L308.532 81.9563H322.322L315.505 65.7146H315.357Z" fill="#2D1554"/>
<path d="M357.611 102.728C353.536 102.728 351.498 100.67 351.498 96.5543V57.897C351.394 56.1541 351.968 54.4382 353.101 53.1074C353.63 52.553 354.272 52.1176 354.983 51.8304C355.694 51.5431 356.459 51.4107 357.225 51.4418C358.456 51.3677 359.681 51.6643 360.741 52.2931C361.824 53.1052 362.792 54.0589 363.62 55.1284L384.168 80.742V57.5417C384.168 53.4751 386.18 51.4418 390.206 51.4418C392.201 51.4418 393.7 51.9748 394.723 53.0408C395.806 54.2821 396.355 55.8992 396.252 57.5417V96.843C396.333 98.4018 395.825 99.9342 394.827 101.137C394.344 101.667 393.75 102.084 393.088 102.359C392.425 102.634 391.709 102.76 390.992 102.728C389.669 102.798 388.353 102.504 387.187 101.877C386.04 101.111 385.036 100.152 384.22 99.0417L363.657 73.4355V96.5543C363.657 100.67 361.641 102.728 357.611 102.728Z" fill="#2D1554"/>
<path d="M429.774 102.899C426.785 102.886 423.805 102.591 420.872 102.018C418.151 101.534 415.509 100.684 413.016 99.4933C411.919 99.0314 411.005 98.2225 410.414 97.1913C409.823 96.16 409.588 94.9634 409.745 93.7858C409.876 92.7087 410.293 91.6863 410.954 90.8246C411.605 89.9524 412.534 89.3261 413.587 89.048C414.839 88.7555 416.154 88.9183 417.296 89.507C419.232 90.4553 421.289 91.1353 423.409 91.5279C425.513 91.9605 427.655 92.1861 429.803 92.2016C432.934 92.2016 435.122 91.787 436.383 90.9653C436.939 90.6589 437.406 90.2129 437.736 89.6715C438.066 89.1301 438.25 88.512 438.267 87.8783C438.284 87.3565 438.171 86.8387 437.936 86.3719C437.702 85.9052 437.354 85.5044 436.925 85.2059C435.503 84.3346 433.922 83.7557 432.273 83.5033L423.958 81.734C414.952 79.7945 410.449 75.0888 410.449 67.6169C410.392 64.5437 411.326 61.5333 413.113 59.0297C415.01 56.4802 417.577 54.5047 420.531 53.3222C424.065 51.9053 427.85 51.2178 431.658 51.3012C434.177 51.3093 436.688 51.5823 439.15 52.1155C441.459 52.5742 443.678 53.4016 445.722 54.5658C446.361 54.8649 446.931 55.293 447.396 55.8231C447.861 56.3532 448.21 56.9737 448.423 57.6454C448.805 58.8911 448.755 60.2289 448.282 61.443C448.062 62.037 447.726 62.5812 447.293 63.0439C446.86 63.5066 446.338 63.8784 445.759 64.1376C444.548 64.7052 443.02 64.6114 441.175 63.8563C439.668 63.2184 438.092 62.754 436.48 62.472C434.837 62.1732 433.171 62.0196 431.502 62.013C428.856 62.013 426.819 62.4745 425.389 63.3973C424.749 63.7534 424.214 64.2726 423.84 64.902C423.466 65.5314 423.266 66.2486 423.261 66.9803C423.253 67.4768 423.365 67.968 423.587 68.4124C423.809 68.8568 424.134 69.2416 424.536 69.5343C425.922 70.405 427.472 70.982 429.091 71.2295L437.333 73.0062C446.482 74.9457 451.056 79.5329 451.056 86.7679C451.121 89.8148 450.197 92.801 448.423 95.2811C446.523 97.8041 443.953 99.7455 441.005 100.885C437.432 102.294 433.614 102.978 429.774 102.899Z" fill="#2D1554"/>
<path d="M468.347 102.092C466.122 102.092 464.445 101.477 463.332 100.248C462.768 99.6156 462.344 98.8711 462.089 98.0636C461.833 97.256 461.751 96.4037 461.849 95.5624C462.094 93.4316 462.987 91.4268 464.408 89.8178L485.92 62.7903H467.338C463.594 62.7903 461.723 60.9939 461.723 57.4011C461.723 53.8082 463.594 52.034 467.338 52.0785H495.059C497.285 52.0785 498.966 52.6929 500.104 53.9217C500.677 54.5483 501.107 55.2922 501.363 56.1014C501.62 56.9107 501.696 57.766 501.587 58.6077C501.314 60.7377 500.41 62.7378 498.991 64.3523L477.382 91.3798H497.218C500.957 91.3798 502.829 93.154 502.834 96.7024C502.839 100.251 500.967 102.047 497.218 102.092H468.347Z" fill="#2D1554"/>
<path d="M519.94 102.092C515.385 102.092 513.11 99.8463 513.115 95.3553V58.8151C513.115 54.3291 515.39 52.0835 519.94 52.0786H544.034C547.446 52.0786 549.152 53.7344 549.152 57.0459C549.152 60.4512 547.446 62.1538 544.034 62.1538H525.622V71.659H542.469C545.881 71.659 547.587 73.3369 547.587 76.6929C547.587 80.0488 545.881 81.7292 542.469 81.7341H525.622V92.0166H544.034C547.446 92.0166 549.152 93.697 549.152 97.0579C549.152 100.419 547.446 102.097 544.034 102.092H519.94Z" fill="#2D1554"/>
<path d="M582.556 102.899C577.898 103.008 573.294 101.895 569.203 99.6709C565.438 97.5606 562.351 94.4259 560.301 90.6321C558.092 86.4502 556.989 81.7745 557.097 77.048C556.984 72.3263 558.071 67.6529 560.257 63.4639C562.298 59.6813 565.389 56.5662 569.159 54.4917C573.295 52.3919 577.87 51.2974 582.511 51.2974C587.152 51.2974 591.727 52.3919 595.864 54.4917C599.624 56.5788 602.712 59.6908 604.765 63.4639C606.974 67.6459 608.075 72.322 607.963 77.048C608.068 81.7638 606.967 86.4287 604.765 90.6025C602.714 94.3946 599.628 97.5287 595.864 99.6413C591.789 101.869 587.201 102.992 582.556 102.899ZM582.556 91.9794C586.25 91.9794 589.15 90.6667 591.257 88.0411C593.364 85.4156 594.42 81.7611 594.425 77.0776C594.425 72.3991 593.381 68.7594 591.294 66.1585C589.207 63.5577 586.294 62.2548 582.556 62.2499C578.807 62.2499 575.892 63.5528 573.81 66.1585C571.728 68.7643 570.684 72.404 570.679 77.0776C570.679 81.7611 571.723 85.4156 573.81 88.0411C575.897 90.6667 578.812 91.9695 582.556 91.9498V91.9794Z" fill="#2D1554"/>
</g>
<defs>
<clipPath id="clip0">
<rect width="608" height="154" fill="white"/>
</clipPath>
</defs>
</svg>
