<svg width="67" height="49" viewBox="0 0 67 49" fill="none" xmlns="http://www.w3.org/2000/svg">
<path d="M5.75293 48.1294L0.234375 45.3944L0.234375 1.12939L62.2529 1.12939L64.3223 6.42694L58.2529 23.3794L66.7529 48.1294L5.75293 48.1294Z" fill="#5B2247"/>
<path d="M0.234375 45.2935L0.234373 0.910431L62.0947 0.910428L54.3755 23.1019L62.0947 45.2935L0.234375 45.2935Z" fill="#BA453F"/>
<path d="M0.234375 45.2935L0.234373 0.910431L62.0947 0.910428L54.3755 23.1019L62.0947 45.2935L0.234375 45.2935Z" fill="#BA453F"/>
<path d="M7.79313 39.7967C7.28646 39.7967 7.03313 39.5401 7.03313 39.0267L7.03313 33.6767C7.03313 33.1701 7.27979 32.9167 7.77312 32.9167C8.27313 32.9167 8.52313 33.1701 8.52313 33.6767V33.7067C8.66313 33.4601 8.86979 33.2634 9.14313 33.1167C9.41646 32.9701 9.72313 32.8967 10.0631 32.8967C10.4898 32.8967 10.8631 33.0001 11.1831 33.2067C11.5098 33.4134 11.7631 33.7067 11.9431 34.0867C12.1231 34.4667 12.2131 34.9201 12.2131 35.4467C12.2131 35.9734 12.1231 36.4301 11.9431 36.8167C11.7631 37.1967 11.5098 37.4934 11.1831 37.7067C10.8631 37.9134 10.4898 38.0167 10.0631 38.0167C9.73646 38.0167 9.43646 37.9467 9.16313 37.8067C8.89646 37.6667 8.68979 37.4801 8.54313 37.2467V39.0267C8.54313 39.5401 8.29313 39.7967 7.79313 39.7967ZM9.61313 36.8867C9.93313 36.8867 10.1931 36.7701 10.3931 36.5367C10.5931 36.3034 10.6931 35.9401 10.6931 35.4467C10.6931 34.9601 10.5931 34.6034 10.3931 34.3767C10.1931 34.1434 9.93313 34.0267 9.61313 34.0267C9.28646 34.0267 9.02313 34.1434 8.82313 34.3767C8.62313 34.6034 8.52313 34.9601 8.52313 35.4467C8.52313 35.9401 8.62313 36.3034 8.82313 36.5367C9.02313 36.7701 9.28646 36.8867 9.61313 36.8867ZM14.4166 37.9967C13.8966 37.9967 13.6366 37.7401 13.6366 37.2267L13.6366 33.6767C13.6366 33.1701 13.8833 32.9167 14.3766 32.9167C14.87 32.9167 15.1166 33.1701 15.1166 33.6767V33.8567C15.3566 33.2634 15.8533 32.9434 16.6066 32.8967C16.7733 32.8834 16.9 32.9267 16.9866 33.0267C17.08 33.1201 17.13 33.2767 17.1366 33.4967C17.15 33.7034 17.1066 33.8667 17.0066 33.9867C16.9133 34.1067 16.7533 34.1801 16.5266 34.2067L16.2966 34.2267C15.55 34.3001 15.1766 34.6801 15.1766 35.3667V37.2267C15.1766 37.7401 14.9233 37.9967 14.4166 37.9967ZM20.7198 38.0167C20.1398 38.0167 19.6398 37.9134 19.2198 37.7067C18.8065 37.4934 18.4865 37.1967 18.2598 36.8167C18.0398 36.4301 17.9298 35.9767 17.9298 35.4567C17.9298 34.9501 18.0365 34.5067 18.2498 34.1267C18.4698 33.7401 18.7665 33.4401 19.1398 33.2267C19.5198 33.0067 19.9565 32.8967 20.4498 32.8967C21.1632 32.8967 21.7298 33.1234 22.1498 33.5767C22.5698 34.0234 22.7798 34.6301 22.7798 35.3967C22.7798 35.6501 22.6232 35.7767 22.3098 35.7767H19.3698C19.4232 36.1634 19.5632 36.4467 19.7898 36.6267C20.0232 36.8001 20.3432 36.8867 20.7498 36.8867C20.9098 36.8867 21.0898 36.8701 21.2898 36.8367C21.4965 36.7967 21.6932 36.7301 21.8798 36.6367C22.0732 36.5434 22.2365 36.5267 22.3698 36.5867C22.5032 36.6401 22.5932 36.7334 22.6398 36.8667C22.6932 37.0001 22.6932 37.1401 22.6398 37.2867C22.5932 37.4267 22.4832 37.5434 22.3098 37.6367C22.0765 37.7634 21.8165 37.8567 21.5298 37.9167C21.2498 37.9834 20.9798 38.0167 20.7198 38.0167ZM20.5098 33.8967C20.1898 33.8967 19.9298 33.9934 19.7298 34.1867C19.5365 34.3801 19.4165 34.6501 19.3698 34.9967H21.5298C21.4898 34.2634 21.1498 33.8967 20.5098 33.8967ZM24.9381 37.9967C24.4315 37.9967 24.1781 37.7401 24.1781 37.2267V33.6767C24.1781 33.1701 24.4248 32.9167 24.9181 32.9167C25.4115 32.9167 25.6581 33.1701 25.6581 33.6767V33.7067C25.8048 33.4534 26.0048 33.2567 26.2581 33.1167C26.5181 32.9701 26.8181 32.8967 27.1581 32.8967C27.5048 32.8967 27.7981 32.9734 28.0381 33.1267C28.2848 33.2801 28.4715 33.5134 28.5981 33.8267C28.7515 33.5334 28.9715 33.3067 29.2581 33.1467C29.5515 32.9801 29.8748 32.8967 30.2281 32.8967C30.7881 32.8967 31.2048 33.0667 31.4781 33.4067C31.7515 33.7401 31.8881 34.2567 31.8881 34.9567V37.2267C31.8881 37.4734 31.8215 37.6634 31.6881 37.7967C31.5615 37.9301 31.3781 37.9967 31.1381 37.9967C30.6315 37.9967 30.3781 37.7401 30.3781 37.2267V35.0067C30.3781 34.6801 30.3248 34.4434 30.2181 34.2967C30.1181 34.1434 29.9448 34.0667 29.6981 34.0667C29.4115 34.0667 29.1881 34.1667 29.0281 34.3667C28.8681 34.5667 28.7881 34.8501 28.7881 35.2167V37.2267C28.7881 37.7401 28.5381 37.9967 28.0381 37.9967C27.7981 37.9967 27.6115 37.9301 27.4781 37.7967C27.3448 37.6634 27.2781 37.4734 27.2781 37.2267V35.0067C27.2781 34.6801 27.2248 34.4434 27.1181 34.2967C27.0115 34.1434 26.8381 34.0667 26.5981 34.0667C26.3115 34.0667 26.0881 34.1667 25.9281 34.3667C25.7681 34.5667 25.6881 34.8501 25.6881 35.2167V37.2267C25.6881 37.7401 25.4381 37.9967 24.9381 37.9967ZM34.3048 32.0967C34.0248 32.0967 33.8082 32.0334 33.6548 31.9067C33.5082 31.7734 33.4348 31.5867 33.4348 31.3467C33.4348 31.1001 33.5082 30.9134 33.6548 30.7867C33.8082 30.6534 34.0248 30.5867 34.3048 30.5867C34.8782 30.5867 35.1648 30.8401 35.1648 31.3467C35.1648 31.8467 34.8782 32.0967 34.3048 32.0967ZM34.3048 37.9867C34.0582 37.9867 33.8682 37.9167 33.7348 37.7767C33.6082 37.6301 33.5448 37.4267 33.5448 37.1667V33.7467C33.5448 33.1934 33.7982 32.9167 34.3048 32.9167C34.5448 32.9167 34.7282 32.9901 34.8548 33.1367C34.9882 33.2767 35.0548 33.4801 35.0548 33.7467V37.1667C35.0548 37.4267 34.9915 37.6301 34.8648 37.7767C34.7382 37.9167 34.5515 37.9867 34.3048 37.9867ZM39.2706 38.0167C38.6906 38.0167 38.1906 37.9134 37.7706 37.7067C37.3573 37.4934 37.0373 37.1967 36.8106 36.8167C36.5906 36.4301 36.4806 35.9767 36.4806 35.4567C36.4806 34.9501 36.5873 34.5067 36.8006 34.1267C37.0206 33.7401 37.3173 33.4401 37.6906 33.2267C38.0706 33.0067 38.5073 32.8967 39.0006 32.8967C39.714 32.8967 40.2806 33.1234 40.7006 33.5767C41.1206 34.0234 41.3306 34.6301 41.3306 35.3967C41.3306 35.6501 41.174 35.7767 40.8606 35.7767H37.9206C37.974 36.1634 38.114 36.4467 38.3406 36.6267C38.574 36.8001 38.894 36.8867 39.3006 36.8867C39.4606 36.8867 39.6406 36.8701 39.8406 36.8367C40.0473 36.7967 40.244 36.7301 40.4306 36.6367C40.624 36.5434 40.7873 36.5267 40.9206 36.5867C41.054 36.6401 41.144 36.7334 41.1906 36.8667C41.244 37.0001 41.244 37.1401 41.1906 37.2867C41.144 37.4267 41.034 37.5434 40.8606 37.6367C40.6273 37.7634 40.3673 37.8567 40.0806 37.9167C39.8006 37.9834 39.5306 38.0167 39.2706 38.0167ZM39.0606 33.8967C38.7406 33.8967 38.4806 33.9934 38.2806 34.1867C38.0873 34.3801 37.9673 34.6501 37.9206 34.9967H40.0806C40.0406 34.2634 39.7006 33.8967 39.0606 33.8967ZM43.4889 37.9967C42.9689 37.9967 42.7089 37.7401 42.7089 37.2267V33.6767C42.7089 33.1701 42.9556 32.9167 43.4489 32.9167C43.9422 32.9167 44.1889 33.1701 44.1889 33.6767V33.8567C44.4289 33.2634 44.9256 32.9434 45.6789 32.8967C45.8456 32.8834 45.9722 32.9267 46.0589 33.0267C46.1522 33.1201 46.2022 33.2767 46.2089 33.4967C46.2222 33.7034 46.1789 33.8667 46.0789 33.9867C45.9856 34.1067 45.8256 34.1801 45.5989 34.2067L45.3689 34.2267C44.6222 34.3001 44.2489 34.6801 44.2489 35.3667V37.2267C44.2489 37.7401 43.9956 37.9967 43.4889 37.9967ZM48.9412 38.0167C48.5745 38.0167 48.2512 37.9467 47.9712 37.8067C47.6912 37.6667 47.4678 37.4767 47.3012 37.2367C47.1412 36.9967 47.0612 36.7267 47.0612 36.4267C47.0612 36.0734 47.1545 35.7901 47.3412 35.5767C47.5278 35.3634 47.8312 35.2134 48.2512 35.1267C48.6712 35.0334 49.2278 34.9867 49.9212 34.9867H50.2812V34.8167C50.2812 34.5234 50.2145 34.3167 50.0812 34.1967C49.9478 34.0701 49.7212 34.0067 49.4012 34.0067C49.2212 34.0067 49.0245 34.0301 48.8112 34.0767C48.5978 34.1167 48.3678 34.1867 48.1212 34.2867C47.9345 34.3667 47.7778 34.3734 47.6512 34.3067C47.5245 34.2334 47.4412 34.1267 47.4012 33.9867C47.3612 33.8401 47.3712 33.6934 47.4312 33.5467C47.4978 33.4001 47.6245 33.2934 47.8112 33.2267C48.1245 33.1067 48.4178 33.0234 48.6912 32.9767C48.9712 32.9234 49.2278 32.8967 49.4612 32.8967C50.2212 32.8967 50.7878 33.0701 51.1612 33.4167C51.5345 33.7567 51.7212 34.2867 51.7212 35.0067V37.2267C51.7212 37.7401 51.4878 37.9967 51.0212 37.9967C50.5478 37.9967 50.3112 37.7401 50.3112 37.2267V37.1667C50.2112 37.4267 50.0412 37.6334 49.8012 37.7867C49.5678 37.9401 49.2812 38.0167 48.9412 38.0167ZM49.2812 37.0067C49.5612 37.0067 49.7978 36.9101 49.9912 36.7167C50.1845 36.5234 50.2812 36.2734 50.2812 35.9667V35.7667H49.9312C49.4178 35.7667 49.0545 35.8134 48.8412 35.9067C48.6278 35.9934 48.5212 36.1467 48.5212 36.3667C48.5212 36.5534 48.5845 36.7067 48.7112 36.8267C48.8445 36.9467 49.0345 37.0067 49.2812 37.0067Z" fill="white"/>
<path d="M29.2266 6.47754L31.584 13.7329H39.2127L33.0409 18.2169L35.3983 25.4722L29.2266 20.9882L23.0548 25.4722L25.4122 18.2169L19.2405 13.7329H26.8692L29.2266 6.47754Z" fill="white"/>
</svg>
