<svg width="68" height="49" viewBox="0 0 68 49" fill="none" xmlns="http://www.w3.org/2000/svg">
<path d="M6.50293 48.1294L0.984375 45.3944L0.984375 1.12939L63.0029 1.12939L65.0723 6.42694L59.0029 23.3794L67.5029 48.1294L6.50293 48.1294Z" fill="#AA6900"/>
<path d="M0.984375 45.2935L0.984373 0.910431L62.8447 0.910428L55.1255 23.1019L62.8447 45.2935L0.984375 45.2935Z" fill="#D69A00"/>
<path d="M15.6853 37.7931C15.2586 37.7931 14.882 37.6898 14.5553 37.4831C14.2353 37.2698 13.9853 36.9731 13.8053 36.5931C13.6253 36.2064 13.5353 35.7498 13.5353 35.2231C13.5353 34.6964 13.6253 34.2431 13.8053 33.8631C13.9853 33.4831 14.2353 33.1898 14.5553 32.9831C14.882 32.7764 15.2586 32.6731 15.6853 32.6731C16.012 32.6731 16.312 32.7431 16.5853 32.8831C16.8586 33.0231 17.0653 33.2098 17.2053 33.4431V31.3131C17.2053 30.7998 17.4553 30.5431 17.9553 30.5431C18.462 30.5431 18.7153 30.7998 18.7153 31.3131V37.0031C18.7153 37.5164 18.4653 37.7731 17.9653 37.7731C17.4653 37.7731 17.2153 37.5164 17.2153 37.0031V36.9731C17.082 37.2264 16.8753 37.4264 16.5953 37.5731C16.322 37.7198 16.0186 37.7931 15.6853 37.7931ZM16.1353 36.6631C16.4553 36.6631 16.7153 36.5464 16.9153 36.3131C17.122 36.0798 17.2253 35.7164 17.2253 35.2231C17.2253 34.7364 17.122 34.3798 16.9153 34.1531C16.7153 33.9198 16.4553 33.8031 16.1353 33.8031C15.8153 33.8031 15.5553 33.9198 15.3553 34.1531C15.1553 34.3798 15.0553 34.7364 15.0553 35.2231C15.0553 35.7164 15.1553 36.0798 15.3553 36.3131C15.5553 36.5464 15.8153 36.6631 16.1353 36.6631ZM22.7388 37.7931C22.2122 37.7931 21.7522 37.6898 21.3588 37.4831C20.9722 37.2698 20.6722 36.9731 20.4588 36.5931C20.2455 36.2064 20.1388 35.7498 20.1388 35.2231C20.1388 34.7031 20.2455 34.2531 20.4588 33.8731C20.6722 33.4864 20.9722 33.1898 21.3588 32.9831C21.7522 32.7764 22.2122 32.6731 22.7388 32.6731C23.2655 32.6731 23.7222 32.7764 24.1088 32.9831C24.5022 33.1898 24.8055 33.4864 25.0188 33.8731C25.2388 34.2531 25.3488 34.7031 25.3488 35.2231C25.3488 35.7498 25.2388 36.2064 25.0188 36.5931C24.8055 36.9731 24.5022 37.2698 24.1088 37.4831C23.7222 37.6898 23.2655 37.7931 22.7388 37.7931ZM22.7388 36.6631C23.0588 36.6631 23.3188 36.5464 23.5188 36.3131C23.7255 36.0798 23.8288 35.7164 23.8288 35.2231C23.8288 34.7364 23.7255 34.3798 23.5188 34.1531C23.3188 33.9198 23.0588 33.8031 22.7388 33.8031C22.4188 33.8031 22.1588 33.9198 21.9588 34.1531C21.7588 34.3798 21.6588 34.7364 21.6588 35.2231C21.6588 35.7164 21.7588 36.0798 21.9588 36.3131C22.1588 36.5464 22.4188 36.6631 22.7388 36.6631ZM28.6775 37.7931C28.2508 37.7931 27.8742 37.6898 27.5475 37.4831C27.2275 37.2698 26.9775 36.9731 26.7975 36.5931C26.6175 36.2064 26.5275 35.7498 26.5275 35.2231C26.5275 34.6964 26.6175 34.2431 26.7975 33.8631C26.9775 33.4831 27.2275 33.1898 27.5475 32.9831C27.8742 32.7764 28.2508 32.6731 28.6775 32.6731C29.0042 32.6731 29.3042 32.7431 29.5775 32.8831C29.8508 33.0231 30.0575 33.2098 30.1975 33.4431V31.3131C30.1975 30.7998 30.4475 30.5431 30.9475 30.5431C31.4542 30.5431 31.7075 30.7998 31.7075 31.3131V37.0031C31.7075 37.5164 31.4575 37.7731 30.9575 37.7731C30.4575 37.7731 30.2075 37.5164 30.2075 37.0031V36.9731C30.0742 37.2264 29.8675 37.4264 29.5875 37.5731C29.3142 37.7198 29.0108 37.7931 28.6775 37.7931ZM29.1275 36.6631C29.4475 36.6631 29.7075 36.5464 29.9075 36.3131C30.1142 36.0798 30.2175 35.7164 30.2175 35.2231C30.2175 34.7364 30.1142 34.3798 29.9075 34.1531C29.7075 33.9198 29.4475 33.8031 29.1275 33.8031C28.8075 33.8031 28.5475 33.9198 28.3475 34.1531C28.1475 34.3798 28.0475 34.7364 28.0475 35.2231C28.0475 35.7164 28.1475 36.0798 28.3475 36.3131C28.5475 36.5464 28.8075 36.6631 29.1275 36.6631ZM34.151 37.7731C33.631 37.7731 33.371 37.5164 33.371 37.0031V33.4531C33.371 32.9464 33.6177 32.6931 34.111 32.6931C34.6043 32.6931 34.851 32.9464 34.851 33.4531V33.6331C35.091 33.0398 35.5877 32.7198 36.341 32.6731C36.5077 32.6598 36.6343 32.7031 36.721 32.8031C36.8143 32.8964 36.8643 33.0531 36.871 33.2731C36.8843 33.4798 36.841 33.6431 36.741 33.7631C36.6477 33.8831 36.4877 33.9564 36.261 33.9831L36.031 34.0031C35.2843 34.0764 34.911 34.4564 34.911 35.1431V37.0031C34.911 37.5164 34.6577 37.7731 34.151 37.7731ZM39.8021 37.7931C39.1754 37.7931 38.7121 37.6198 38.4121 37.2731C38.1188 36.9264 37.9721 36.4064 37.9721 35.7131V33.4531C37.9721 32.9464 38.2221 32.6931 38.7221 32.6931C39.2288 32.6931 39.4821 32.9464 39.4821 33.4531V35.7531C39.4821 36.3331 39.7321 36.6231 40.2321 36.6231C40.5188 36.6231 40.7521 36.5231 40.9321 36.3231C41.1188 36.1164 41.2121 35.8464 41.2121 35.5131V33.4531C41.2121 32.9464 41.4621 32.6931 41.9621 32.6931C42.4688 32.6931 42.7221 32.9464 42.7221 33.4531V37.0031C42.7221 37.5164 42.4788 37.7731 41.9921 37.7731C41.7521 37.7731 41.5688 37.7064 41.4421 37.5731C41.3154 37.4398 41.2521 37.2531 41.2521 37.0131C40.9254 37.5331 40.4421 37.7931 39.8021 37.7931ZM45.1505 37.7731C44.6439 37.7731 44.3905 37.5164 44.3905 37.0031V31.3131C44.3905 30.7998 44.6439 30.5431 45.1505 30.5431C45.6505 30.5431 45.9005 30.7998 45.9005 31.3131V34.8031H45.9205L47.3705 33.1931C47.5172 33.0264 47.6505 32.9031 47.7705 32.8231C47.8905 32.7364 48.0572 32.6931 48.2705 32.6931C48.4772 32.6931 48.6372 32.7464 48.7505 32.8531C48.8639 32.9531 48.9205 33.0831 48.9205 33.2431C48.9205 33.3964 48.8539 33.5464 48.7205 33.6931L47.4405 35.1231L48.8905 36.7931C49.0172 36.9531 49.0705 37.1098 49.0505 37.2631C49.0372 37.4098 48.9705 37.5331 48.8505 37.6331C48.7305 37.7264 48.5772 37.7731 48.3905 37.7731C48.1572 37.7731 47.9739 37.7298 47.8405 37.6431C47.7139 37.5564 47.5772 37.4231 47.4305 37.2431L45.9205 35.5631H45.9005V37.0031C45.9005 37.5164 45.6505 37.7731 45.1505 37.7731Z" fill="white"/>
<path fill-rule="evenodd" clip-rule="evenodd" d="M27.7773 22.0198V25.1021H37.833V14.2729H33.9926V22.0198H27.7773Z" fill="white"/>
<rect x="21.7422" y="8.83691" width="10.0556" height="10.8292" fill="white"/>
</svg>
