<svg width="161" height="67" viewBox="0 0 161 67" fill="none" xmlns="http://www.w3.org/2000/svg">
<path d="M160.07 36.499C160.07 53.0676 146.639 66.499 130.07 66.499L10.0703 66.499C4.54747 66.499 0.0703128 62.0219 0.0703131 56.499L0.070316 9.2977L160.07 9.29772L160.07 36.499Z" fill="#7F4677"/>
<path d="M142.828 40.9916C144.085 51.1429 140.627 61.2429 136.5 66C149.79 61.6155 162.677 51.453 159.537 30C155.584 38.4571 151.515 44.5563 142.828 40.9916Z" fill="#2D1554"/>
<rect y="6.65039" width="160.07" height="11.4403" fill="#2D1554"/>
<path d="M22.3867 2C22.3867 0.895433 23.2821 0 24.3867 0H27.7954C28.8999 0 29.7954 0.895431 29.7954 2V6.65008H22.3867V2Z" fill="#2D1554"/>
<path d="M128.094 2C128.094 0.895433 128.989 0 130.094 0H133.502C134.607 0 135.502 0.895431 135.502 2V6.65008H128.094V2Z" fill="#2D1554"/>
</svg>
